<svg width="89" height="67" viewBox="0 0 89 67" fill="none" xmlns="http://www.w3.org/2000/svg">
<mask id="mask0_115_33" style="mask-type:luminance" maskUnits="userSpaceOnUse" x="0" y="0" width="89" height="67">
<path d="M0 0.499878H88.2V66.6563H0V0.499878Z" fill="white"/>
</mask>
<g mask="url(#mask0_115_33)">
<path fill-rule="evenodd" clip-rule="evenodd" d="M-5.51733 0.499878H93.7174V66.6563H-5.51733V0.499878Z" fill="#199D00"/>
<path fill-rule="evenodd" clip-rule="evenodd" d="M19.4851 19.2485C19.3817 20.799 19.2267 23.5125 20.5576 23.7968C22.1469 23.9518 21.2682 21.1092 21.8497 20.5923C21.9531 20.3339 22.1469 20.3339 22.1598 20.6569V23.0732C22.1598 23.8484 22.6766 24.081 23.0643 24.2361C23.4778 24.2102 23.762 24.2361 23.9171 24.6237L24.1238 28.7973C24.1238 28.7973 25.08 29.0815 25.1317 26.4585C25.1704 24.908 24.8216 23.6288 25.0283 23.3316C25.0283 23.0344 25.4159 23.0215 25.6744 23.1636C26.0878 23.4479 26.2687 23.8097 26.9148 23.6805C27.8968 23.3962 28.4912 22.9181 28.5041 22.1687C28.4847 21.4322 28.3315 20.7054 28.0519 20.0238C28.1035 19.8946 27.871 19.5457 27.9227 19.4165C28.0906 19.7007 28.362 19.6749 28.4137 19.4165C28.2457 18.8738 27.9873 18.344 27.5738 18.1244C27.2249 17.8143 26.7081 17.8659 26.5401 18.512C26.4367 19.2485 26.7985 20.1142 27.3283 20.8378C27.4446 21.1092 27.5996 21.5743 27.535 21.9878C27.2507 22.1558 26.9665 22.0782 26.721 21.8327C26.721 21.8327 25.9457 21.2513 25.9457 21.1092C26.1524 19.7912 25.9845 19.6361 25.8682 19.2614C25.7907 18.7575 25.5452 18.5895 25.3513 18.2536C25.1575 18.0468 24.8991 18.0468 24.7699 18.2536C24.421 18.8479 24.589 20.1271 24.8345 20.7086C25.0154 21.2384 25.2867 21.5743 25.1575 21.5743C25.0541 21.8715 24.8345 21.794 24.6665 21.4451C24.4774 20.7109 24.3862 19.9549 24.3952 19.1968C24.3306 18.6024 24.253 17.3362 23.8525 17.0002C23.6199 16.6901 23.271 16.8452 23.1418 17.1294C23.1077 17.7067 23.1207 18.2857 23.1806 18.8609C23.439 19.817 23.5294 20.6698 23.6587 21.6389C23.6974 22.944 22.9092 22.2075 22.948 21.5485C23.1175 20.72 23.1043 19.8646 22.9092 19.0418C22.78 18.7058 22.6379 18.6283 22.3149 18.68C22.0694 18.68 21.4362 19.3648 21.2553 20.5277C21.2553 20.5277 21.1003 21.1221 21.0357 21.6518C20.9452 22.2462 20.5576 22.6855 20.2733 21.5743C20.0407 20.7603 19.8857 18.7833 19.498 19.2485H19.4851Z" fill="white"/>
<path fill-rule="evenodd" clip-rule="evenodd" d="M23.8137 25.5928L19.679 27.5827C19.7177 26.6394 21.6301 24.9468 22.948 24.9338C23.7879 24.9468 23.5812 25.2569 23.8008 25.5928H23.8137Z" fill="white"/>
<path fill-rule="evenodd" clip-rule="evenodd" d="M23.0773 26.8849C20.9065 32.5056 28.1811 33.2938 28.9952 27.1175C29.0727 26.8591 29.3828 26.6136 29.4345 27.027C29.2665 32.6219 23.8008 32.9966 22.8705 31.2393C22.6517 30.6347 22.5423 29.9959 22.5475 29.3529C22.4183 28.2546 21.8368 28.681 21.7464 29.7663C21.6559 30.3736 21.6818 30.5416 21.6818 31.1231C21.966 35.5421 29.0081 33.6427 30.1581 29.9989C30.7654 27.9832 30.0547 26.4973 30.3777 26.4973C31.0755 27.2467 32.0575 26.6006 32.2771 26.3422C32.3676 26.213 32.6002 26.1226 32.7552 26.2905C33.2979 26.6782 34.2541 26.4973 34.4608 25.8125C34.5771 25.1276 34.6675 24.4299 34.6934 23.7192C34.2412 23.8484 33.9181 23.9389 33.8794 24.1327L33.7889 24.7271C33.7501 24.9209 33.3754 24.9209 33.3496 24.6754C33.1816 23.9001 32.4839 23.8097 32.0575 24.9984C31.7861 25.231 31.2693 25.2827 31.2176 24.9338C31.2822 24.1327 30.9592 24.0293 30.3131 24.404L29.6929 19.7266C29.9513 19.7266 30.2097 19.9204 30.4552 19.6103C30.1968 18.7704 29.6154 17.0648 29.2923 16.9356C29.1502 16.7547 29.021 16.871 28.8143 16.9227C28.4783 17.026 28.1682 17.3103 28.2716 17.8788C28.6592 20.308 28.9176 22.1558 29.3182 24.5979C29.3828 24.8692 29.1502 25.2439 28.8401 25.2052C28.3232 24.8563 28.194 24.1456 27.2896 24.1715C26.6435 24.1715 25.9199 24.8821 25.8295 25.554C25.7132 26.0967 25.6744 26.6782 25.8295 27.1433C26.2817 27.686 26.8244 27.6343 27.3025 27.518C27.6901 27.3501 28.0131 26.9624 28.1553 27.0529C28.2457 27.1692 28.1682 28.4613 26.3075 29.4433C25.1834 29.9602 24.2789 30.0635 23.8008 29.1461C23.5036 28.5647 23.8267 26.381 23.0773 26.8849Z" fill="white"/>
<path fill-rule="evenodd" clip-rule="evenodd" d="M32.3417 21.1738C32.7681 21.0188 34.8355 18.6413 34.8355 18.6413L34.5254 18.3828C34.4091 18.2924 34.422 18.189 34.5254 18.0986C35.0422 17.7885 34.8743 17.1424 34.6158 16.8323C34.4404 16.7468 34.2474 16.7034 34.0522 16.7056C33.8571 16.7079 33.6651 16.7557 33.4917 16.8452C33.1299 17.1941 33.0524 17.7497 33.3366 18.0856C33.608 18.2149 33.8793 18.4991 33.6984 18.6542C32.8456 19.5587 30.5328 21.1221 30.8041 21.1738C30.8558 21.2513 32.29 21.2513 32.3288 21.1738H32.3417ZM19.8082 29.5726C19.0329 30.813 18.9683 32.6607 19.3947 33.2163C19.6273 33.4748 20.002 33.5911 20.2733 33.5006C20.7643 33.2939 20.984 32.2989 20.8677 31.9501C20.6997 31.6916 20.5705 31.6529 20.4025 31.8596C20.0666 32.5574 19.9245 32.0793 19.8857 31.6916C19.8487 31.0352 19.8833 30.3766 19.9891 29.7276C20.0795 29.1849 19.9891 29.34 19.8082 29.5726ZM53.0285 27.5956C52.2791 25.9676 51.2325 24.3653 50.9095 23.758C49.9025 22.1662 48.8335 20.6145 47.705 19.1064C46.9039 18.1502 49.023 19.507 47.4466 17.5946L46.2966 16.6256C46.0382 16.4447 45.418 16.1087 45.3146 16.6514C45.2629 17.1424 45.2887 17.4008 45.3663 17.8014C45.4309 18.0598 45.8185 18.512 46.0123 18.7705C48.6613 22.2792 50.988 26.02 52.9639 29.9473C53.2999 29.7793 53.2224 27.867 53.0285 27.5956Z" fill="white"/>
<path fill-rule="evenodd" clip-rule="evenodd" d="M49.7336 32.9967C49.5786 33.1646 50.0954 33.8753 50.7673 33.8753C51.8785 33.7461 52.8605 33.1259 53.765 31.472C54.1326 30.9218 54.367 30.2936 54.4499 29.6372C54.5593 26.5004 54.3078 23.3615 53.7004 20.2822C53.6617 20.0238 53.7004 19.7137 53.7263 19.6362C53.8038 19.5457 54.0493 19.6362 54.1785 19.4165C54.3723 19.2227 53.6617 17.6075 53.274 17.0002C53.1448 16.716 53.0802 16.5351 52.8476 17.0261C52.567 17.5679 52.4333 18.1738 52.46 18.7834C52.9898 22.4659 53.1577 25.6833 53.4937 29.3658C53.5324 29.7276 53.4808 30.2445 53.2353 30.4512C52.2603 31.5368 51.067 32.4042 49.7336 32.9967ZM64.7868 32.9838C63.9857 33.4489 63.9857 33.9787 64.6317 33.9916C65.743 33.8624 67.0609 33.7719 67.9654 32.4023C68.2849 31.7572 68.4695 31.0538 68.5081 30.3349C68.6708 27.2465 68.4669 24.1496 67.9008 21.1092C67.875 20.8508 67.7587 20.2435 67.7974 20.1659C67.875 19.985 68.2368 20.1789 68.366 19.9721C68.5469 19.7783 67.4227 18.3311 67.0222 17.7109C66.893 17.4266 66.8413 17.2458 66.5958 17.7368C66.3355 18.2835 66.2541 18.8984 66.3632 19.494C66.9576 23.4996 67.3969 26.4973 67.4873 30.0377C67.4356 30.3737 67.4227 30.5546 67.2677 30.981C66.9188 31.4203 66.5312 31.9888 66.1694 32.2602C65.8076 32.5186 65.0323 32.777 64.7868 32.9838Z" fill="white"/>
<path fill-rule="evenodd" clip-rule="evenodd" d="M65.3812 29.4046C65.3812 28.4613 65.3941 27.6602 65.3683 26.9496C65.3599 26.3477 65.228 25.754 64.9807 25.2052C64.7481 24.6754 64.8902 24.249 64.7739 23.6805C64.6705 23.112 64.6964 22.2592 64.5413 21.6002C64.4897 21.3418 64.3604 20.5019 64.3992 20.4115C64.4638 20.2306 64.7093 20.4115 64.8385 20.2047C65.0194 20.0109 64.1925 17.8789 63.779 17.2716C63.6368 17.0003 63.3526 17.0907 63.0296 17.53C62.7065 17.8272 62.8228 18.4862 62.952 19.1193C63.7402 23.2929 64.3475 27.0788 64.2183 31.0456C64.1666 31.3815 65.3812 30.0377 65.3812 29.4046ZM59.4762 24.2361C58.9723 24.2103 57.9257 23.2412 57.6156 22.6856C57.5648 22.5498 57.5432 22.4048 57.5521 22.2601C57.561 22.1155 57.6002 21.9742 57.6673 21.8457C57.8611 21.7165 58.1453 21.5873 58.365 21.7165C58.365 21.7165 58.5847 22.0266 58.5459 22.0654C58.8043 22.1946 58.9335 22.13 58.9594 22.0137C58.9723 21.8199 58.8819 21.7036 58.8819 21.4968C58.9981 20.9025 59.6571 20.812 59.9155 21.1867C60.0964 21.4193 60.174 21.8974 60.1869 22.2204C60.1869 22.3884 59.9285 22.1946 59.7605 22.2204C59.6184 22.2721 59.5796 22.453 59.5667 22.6081C59.5408 23.0345 59.4892 23.7193 59.4762 24.2232V24.2361ZM50.1988 30.4383C50.328 29.172 50.1471 26.9108 50.1342 26.1614C50.0651 24.234 49.9056 22.3109 49.6561 20.3985C49.5011 19.3132 50.0954 20.5148 50.0179 19.8817C49.8241 18.8092 49.2297 18.0727 48.5191 17.1036C48.2994 16.7806 48.2994 16.716 47.9505 17.1812C47.5629 18.0469 47.8989 18.6542 48.0022 19.339C48.5061 21.5614 48.8033 23.603 48.9455 25.6316C49.0942 27.7389 49.1115 29.8535 48.9971 31.963C49.3848 31.9759 49.9792 31.3557 50.1988 30.4383Z" fill="white"/>
<path fill-rule="evenodd" clip-rule="evenodd" d="M67.0997 28.4097C66.2082 26.9108 64.8773 25.3086 64.5155 24.7013C63.3174 23.0281 62.0589 21.3989 60.7425 19.8171C59.6442 18.6542 61.2594 19.6233 60.5358 18.7188C59.9285 18.0598 59.7605 17.8401 59.2307 17.4396C58.9723 17.2716 58.8172 16.9486 58.7139 17.5042C58.6727 17.9854 58.664 18.4689 58.688 18.9514C58.688 19.171 58.9206 19.5974 59.1274 19.8558C61.802 23.1507 64.7351 26.5102 67.0868 30.7355C67.4228 30.5675 67.3065 28.6681 67.0868 28.4097H67.0997Z" fill="white"/>
<path fill-rule="evenodd" clip-rule="evenodd" d="M26.8632 25.6574C26.7986 25.7737 26.6564 25.9158 26.7081 26.0579C26.7986 26.1871 26.889 26.2259 27.0441 26.2259C27.1862 26.2259 27.3929 26.2647 27.4317 26.1871C27.5092 26.0967 27.5609 25.9287 27.5092 25.7607C27.3542 25.3731 26.9407 25.5282 26.8632 25.6574Z" fill="#1BA400"/>
<path fill-rule="evenodd" clip-rule="evenodd" d="M56.7886 47.3391C57.9773 47.3908 58.7526 47.4037 59.7992 47.52L61.0397 47.3908C62.4093 47.2616 62.461 49.3419 62.461 49.3419C62.461 50.5694 61.9829 50.634 61.3756 50.7632C61.0267 50.8149 60.8588 50.5565 60.6649 50.2981C60.3727 50.3917 60.0615 50.4095 59.7605 50.3498C59.2565 50.3239 58.7655 50.3239 58.2745 50.2851C57.7577 50.2464 57.4734 50.3498 56.9436 50.2981C56.8403 50.466 56.6852 50.6986 56.3751 50.634C56.1167 50.5953 55.7937 49.8587 55.8841 49.2773C56.0779 48.8638 56.0133 49.006 56.0133 48.8251C51.155 48.6958 46.2578 48.4762 41.5028 48.5408C37.7815 48.5537 34.1119 48.7088 30.4294 48.8638C28.4654 48.838 26.9665 48.5279 25.9328 47.0161C26.0362 47.0161 30.9462 47.2874 32.3805 47.197C35.0293 47.1711 37.4585 46.9515 40.159 46.874C45.4825 46.9644 50.7673 46.9644 56.0908 47.3391C55.574 46.9902 55.574 46.1762 56.3493 45.9695C56.4139 45.9178 56.4526 46.37 56.5689 46.3571C57.2021 46.3183 56.9178 47.1711 56.7886 47.3391ZM35.3911 17.9822C34.59 20.2822 35.8563 22.8147 36.7349 22.5692C37.381 22.8276 37.7686 21.613 38.027 20.2951C38.2208 19.9204 38.3501 19.8816 38.4405 20.0754C38.4147 21.8327 38.5697 22.2333 39.022 22.763C40.0298 23.5383 40.8697 22.8664 40.9343 22.8018L41.7096 22.0136C41.8905 21.8198 42.123 21.8198 42.3685 21.9748C42.614 22.1945 42.5753 22.5692 43.0921 22.8276C43.5314 23.0085 44.4489 22.8793 44.6685 22.5046C44.9528 22.0007 45.0303 21.8327 45.1595 21.6518C45.3663 21.3805 45.7151 21.4968 45.7151 21.5872C45.6764 21.7423 45.4696 21.8844 45.6118 22.1687C45.8702 22.3496 45.9219 22.2333 46.064 22.1945C46.5809 21.9361 46.9685 20.8249 46.9685 20.8249C46.9814 20.4114 46.7488 20.4372 46.5938 20.5406L46.1932 20.8119C45.9348 20.8507 45.4567 21.0187 45.2112 20.644C44.9657 20.2046 44.9657 19.5715 44.7848 19.1193C44.7848 19.0934 44.4489 18.4086 44.759 18.3698C44.914 18.3957 45.237 18.4861 45.2887 18.2148C45.4438 17.9434 44.9528 17.1811 44.6039 16.7934C44.3067 16.4704 43.8932 16.4316 43.4927 16.7676C43.2084 17.026 43.2472 17.3103 43.1955 17.5816C43.1465 17.7761 43.1444 17.9794 43.1893 18.1748C43.2342 18.3703 43.3249 18.5522 43.4539 18.7058C43.7382 19.2485 44.2421 19.9591 44.0741 20.967C44.0741 20.967 43.777 21.4321 43.2601 21.3675C43.0404 21.3288 42.6916 21.2383 42.5107 19.8428C42.3685 18.8091 42.5365 17.3361 42.0972 16.6513C41.9292 16.2249 41.8129 15.8244 41.4253 16.535C41.3219 16.8193 40.8697 17.2457 41.1927 18.1114C41.4984 18.8915 41.5877 19.7397 41.4511 20.5664C41.2573 20.8507 41.2186 20.9411 40.9731 21.2125C40.6371 21.6001 40.2624 21.4968 39.9781 21.3546C39.7197 21.1866 39.513 21.0962 39.3838 20.5147C39.4096 19.6103 39.4613 18.1243 39.2933 17.8142C39.0478 17.3232 38.6472 17.5041 38.4793 17.6592C37.7106 18.513 37.196 19.5648 36.9933 20.6956C36.7608 21.4451 36.5152 21.2254 36.3473 20.9282C35.9338 20.5406 35.895 17.4783 35.3911 17.9822Z" fill="white"/>
<path fill-rule="evenodd" clip-rule="evenodd" d="M37.8203 22.9957C38.195 22.7373 38.027 22.5564 38.5697 23.0991C39.2702 24.3385 39.6769 25.7221 39.7585 27.1434C39.7326 27.4793 39.9652 27.6861 40.0815 27.6086C40.1332 26.8333 42.0326 25.7479 43.777 25.5929C44.0354 25.5282 43.9062 25.0243 43.9449 24.7659C43.8416 23.7968 44.4876 22.9182 45.3921 22.8536C46.6325 23.0345 47.046 23.6934 47.0719 24.6884C46.9297 26.6265 44.914 26.9496 43.7899 27.1046C43.6219 27.1692 43.5444 27.2468 43.7899 27.3372L48.519 27.3631L48.7645 27.4923C48.7904 27.6215 48.687 27.5181 48.5061 27.8282C48.246 28.2852 48.0832 28.7912 48.028 29.3142C46.6196 29.7793 45.1595 29.9602 43.6865 30.154C43.1697 30.4125 42.9112 30.7613 43.0146 31.149C43.1955 31.5754 44.3326 32.0147 44.3326 32.0276C44.5522 32.1568 44.7977 32.4798 44.268 33.1388C41.968 33.0355 40.172 32.0534 39.5517 30.6709C39.3708 30.5287 39.1641 30.6709 39.0349 30.8518C38.1304 32.0147 37.2518 33.0484 35.7141 33.6169C34.8097 33.8495 33.8664 33.4748 33.4271 32.8804C33.1299 32.5315 33.1428 32.1568 33.0395 32.0793C32.5355 32.2989 28.2715 34.1079 28.8142 33.2551C29.8479 32.1568 31.6569 31.3299 33.2333 30.2445C33.3496 29.8698 33.5563 28.6293 34.1765 28.2288C34.2153 28.2288 34.0861 28.9524 34.099 29.2625C34.099 29.5209 34.0732 29.6113 34.1248 29.5467C34.2411 29.4821 36.1535 27.9704 36.3214 27.5052C36.5023 27.2468 36.3602 26.5749 36.3602 26.549C35.9984 25.6187 35.4945 25.5412 35.3136 25.076C35.1456 24.4687 35.2231 23.771 35.572 23.5642C35.8821 23.2929 36.2439 23.3187 36.5928 23.6288C36.9804 23.9777 37.3164 24.6625 37.4197 25.1665C37.3551 25.3603 36.9029 25.0372 36.7737 25.1277C37.0224 25.4135 37.1878 25.7621 37.2518 26.1355C37.5102 27.1951 37.4327 27.6086 37.1742 28.2934C36.3214 30.0894 35.2361 30.6192 34.2799 31.2911C34.2541 31.2911 34.2411 31.7433 34.59 31.9888C34.7192 32.1181 35.2231 32.1827 35.8046 31.9888C37.0468 31.299 38.0513 30.2495 38.686 28.9782C38.7958 28.0109 38.6899 27.0312 38.3759 26.1097C38.0012 25.244 37.5619 24.0165 37.5619 23.9906C37.549 23.4479 37.5877 23.267 37.8203 22.9957ZM25.4418 18.0081C25.9845 18.2665 27.0182 18.1503 26.9665 17.2716L26.9407 16.8711C26.8373 16.6126 26.5272 16.6772 26.4626 16.9357C26.4367 17.0261 26.5013 17.1682 26.4238 17.207C26.3721 17.2587 26.2042 17.2328 26.2042 16.9873C26.2042 16.9098 26.1525 16.8323 26.1137 16.7806C26.0879 16.7548 26.062 16.7548 25.9974 16.7548C25.9199 16.7548 25.9199 16.7677 25.8811 16.8323C25.8682 16.8969 25.8424 16.9615 25.8424 17.039C25.8424 17.1295 25.7907 17.1553 25.739 17.1682C25.6615 17.1682 25.6744 17.1682 25.6098 17.1424C25.5839 17.1036 25.5452 17.0907 25.5452 17.0132L25.5064 16.8064C25.4806 16.7677 25.4289 16.7418 25.3772 16.7289C25.08 16.7289 25.0542 17.0778 25.08 17.207C25.0542 17.2328 25.0412 17.8401 25.4418 18.0081Z" fill="white"/>
<path fill-rule="evenodd" clip-rule="evenodd" d="M41.3995 24.753C41.9422 25.0114 43.2472 24.8693 42.9242 24.0294L42.8983 23.6159C42.782 23.3575 42.4849 23.4221 42.4203 23.6935C42.3944 23.771 42.459 23.9131 42.3686 23.9519C42.3298 24.0036 42.1489 23.9777 42.1618 23.7451C42.1618 23.6676 42.1101 23.5772 42.0714 23.5255C42.0326 23.5126 42.0197 23.4996 41.9422 23.4996C41.8776 23.4996 41.8776 23.5255 41.8388 23.5901C41.813 23.6547 41.8 23.7193 41.8 23.7968C41.7871 23.8744 41.7483 23.9002 41.6837 23.926C41.6191 23.926 41.6321 23.926 41.5804 23.8873C41.5416 23.8485 41.5028 23.8356 41.5028 23.771L41.4641 23.5642C41.4382 23.5255 41.3866 23.4996 41.3349 23.4867C41.0377 23.4867 41.0118 23.8227 41.0248 23.9519C41.0118 23.9777 40.9989 24.5979 41.4124 24.753H41.3995ZM50.7027 21.962C51.2454 22.2204 52.2662 22.1041 52.2274 21.2384L52.2016 20.825C52.0853 20.5665 51.7881 20.6311 51.7235 20.8896C51.6977 20.98 51.7623 21.1221 51.6718 21.1738C51.6331 21.2126 51.4522 21.1867 51.4651 20.9412C51.4651 20.8637 51.4134 20.7862 51.3746 20.7345C51.3359 20.7087 51.3229 20.7087 51.2454 20.7087C51.1808 20.7087 51.1808 20.7345 51.142 20.7991L51.1033 20.9929C51.0904 21.0834 51.0516 21.1221 50.987 21.1221C50.9224 21.1221 50.9353 21.1221 50.8836 21.0963C50.8449 21.0575 50.8061 21.0446 50.8061 20.98C50.8061 20.9154 50.7932 20.812 50.7673 20.7603C50.7415 20.7216 50.6898 20.7087 50.6381 20.6957C50.3409 20.6957 50.3151 21.0317 50.328 21.1609C50.3151 21.1867 50.3022 21.794 50.7157 21.962H50.7027ZM55.5223 28.9782C54.5791 30.0507 54.9926 31.8209 55.2122 32.2085C55.5223 32.8287 55.7678 33.2293 56.3751 33.5394C56.9307 33.94 57.3701 33.6944 57.6026 33.4102C58.1583 32.8287 58.1712 31.3428 58.4296 31.0585C58.6105 30.5158 59.0757 30.6063 59.2953 30.8518C59.5008 31.1435 59.7763 31.379 60.0964 31.5366C60.6133 31.9889 61.2335 32.0793 61.8537 31.6658C62.2672 31.4203 62.5385 31.1231 62.784 30.5158C63.0425 29.7923 62.9132 26.4327 62.8486 24.4429L62.306 21.6648C62.306 21.639 62.2413 20.3469 62.1767 20.0497C62.1767 19.9205 62.138 19.8817 62.2672 19.8946C62.4093 20.0238 62.4222 20.0238 62.5256 20.0626C62.6548 20.0884 62.784 19.8429 62.6936 19.6362L61.4015 17.2329C61.2981 17.1295 61.156 17.0261 60.988 17.2587C60.8889 17.3484 60.81 17.4582 60.7565 17.5807C60.7031 17.7032 60.6763 17.8357 60.6779 17.9694C60.7166 18.5379 60.8071 19.1194 60.8459 19.6879L61.3627 22.6081C61.5307 24.6755 61.5694 26.3811 61.7374 28.4614C61.7116 29.34 61.4402 30.1024 61.1818 30.2187C61.1818 30.2187 60.7942 30.4383 60.5358 30.1928C60.3419 30.1153 59.5796 28.9136 59.5796 28.9136C59.1919 28.5647 58.9335 28.6552 58.6622 28.9136C57.8869 29.663 57.551 31.0327 57.0212 31.9889C56.892 32.2085 56.5043 32.3765 56.0909 31.9759C55.0313 30.5158 55.6515 28.4484 55.5223 28.9782ZM50.9482 16.8711C51.4392 17.0649 51.7752 18.0598 51.6718 18.5508C51.5684 19.1323 51.31 19.7783 51.1291 19.7008C50.9224 19.6233 51.2583 19.1064 51.0645 18.5637C50.9612 18.202 50.2893 17.5559 50.3668 17.375C50.2376 16.9744 50.651 16.7935 50.9482 16.8581V16.8711Z" fill="white"/>
<path fill-rule="evenodd" clip-rule="evenodd" d="M57.0987 29.5726C57.1892 28.3838 57.0212 27.6603 56.9953 26.9625C56.9695 26.2648 56.2071 20.9412 56.0521 20.4244C55.8583 19.4165 56.7886 20.2952 56.6852 19.7008C56.3622 18.9772 55.574 17.9048 55.3285 17.2716C55.1735 17.0132 55.2381 16.7548 54.9021 17.207C54.6128 17.9999 54.5111 18.8491 54.6049 19.6879C55.406 23.8614 56.2201 27.3243 56.0909 31.2911C56.4785 31.2911 56.9049 30.4254 57.0987 29.5726ZM65.42 18.5508C65.8722 18.7705 66.1306 20.0109 66.0789 20.3598C65.9885 21.0059 65.7559 21.7036 65.5879 21.6131C65.3941 21.5356 65.6267 20.657 65.5362 20.3856C65.4329 19.998 64.8256 19.3003 64.8902 19.0935C64.761 18.6542 65.1486 18.4733 65.42 18.5508ZM32.3805 27.3243C32.8069 27.4923 33.0653 28.3968 33.0265 28.6552C32.9232 29.1333 32.7035 29.6501 32.5355 29.5726C32.3676 29.5209 32.5743 28.8749 32.4968 28.6681C32.458 28.19 31.8636 27.9316 31.8766 27.7249C31.7732 27.3372 32.135 27.2726 32.3934 27.3243H32.3805Z" fill="white"/>
<path fill-rule="evenodd" clip-rule="evenodd" d="M42.6657 28.6939C43.2084 28.7197 43.4798 29.159 42.9758 29.3399C42.459 29.5079 41.9809 29.6501 41.968 30.3736C42.1618 31.4073 41.7096 31.0455 41.4511 30.9163C41.141 30.6837 40.2624 30.1411 40.1332 28.9782C40.1202 28.7068 40.3399 28.4613 40.6888 28.4613C41.2056 28.6034 41.9809 28.6164 42.6657 28.6939Z" fill="#1B9D00"/>
<path fill-rule="evenodd" clip-rule="evenodd" d="M21.0228 16.5738C21.643 16.7547 21.6817 17.685 21.643 17.9564C21.5525 18.4474 21.3329 18.9771 21.1778 18.9125C20.9969 18.8479 21.1778 18.176 21.0874 17.9693C20.9969 17.685 20.4671 17.1423 20.5188 16.9873C20.4025 16.6643 20.7773 16.5092 21.0228 16.5738ZM33.4142 20.9153C32.9232 21.1737 32.7423 21.949 33.0395 22.4142C33.3237 22.8018 33.763 22.6597 33.8147 22.6597C34.2928 22.7114 34.5771 21.7681 34.5771 21.7681C34.5771 21.7681 34.59 21.5097 34.0344 22.0136C33.7889 22.0524 33.776 21.9619 33.7114 21.8327C33.6522 21.5867 33.6749 21.3282 33.776 21.0962C33.8664 20.8636 33.6855 20.7603 33.4142 20.9153ZM37.0321 16.212C36.7737 16.38 36.2956 16.8839 36.2827 17.4524C36.2698 17.7755 36.2051 17.7755 36.4119 17.9693C36.5799 18.2019 36.722 18.189 37.0321 18.021C37.1094 17.9723 37.1757 17.9082 37.2268 17.8325C37.278 17.7569 37.3129 17.6715 37.3293 17.5817C37.4068 17.2199 36.9417 17.7626 36.89 17.3491C36.7866 16.9614 37.0838 16.8064 37.3681 16.4446C37.3681 16.1862 37.3681 16.0182 37.0192 16.212H37.0321ZM39.9264 16.7289C39.8125 17.1994 39.7433 17.6796 39.7197 18.1631C39.6422 18.5249 40.1073 18.68 40.3012 18.2148C40.6113 17.3749 40.6113 17.0131 40.6371 16.6643C40.5467 16.1086 40.172 16.1216 39.9264 16.7289ZM58.2745 26.0709C58.3262 26.0063 60.8588 24.2102 60.8588 24.2102C61.1172 24.1198 61.0526 25.1406 60.9363 25.1276C60.1509 25.8846 59.2475 26.5086 58.2616 26.9754C58.1324 27.0658 58.0161 26.2905 58.2616 26.0709H58.2745ZM60.5616 26.045C61.0138 26.2647 61.1947 27.5697 61.143 27.9186C61.143 28.6163 60.7166 29.159 60.5357 29.0815C60.3548 28.9911 60.5616 28.2158 60.4711 27.9444C60.3678 27.5568 59.993 26.8461 60.0577 26.6394C59.9284 26.2001 60.2902 25.9675 60.5745 26.045H60.5616ZM45.573 31.6528C45.7826 31.4082 46.0263 31.1949 46.2966 31.0197C46.555 30.8905 46.7876 31.1231 46.7747 31.1101C46.8134 31.3686 46.6196 31.5882 46.6842 31.9242C46.7359 32.0534 46.7747 32.2084 47.0202 32.1568C47.4207 31.8337 47.7955 31.8079 48.1831 31.795C48.5061 31.8079 48.519 32.3376 48.3123 32.3376C47.5758 32.4927 47.2528 32.6994 46.723 32.8933C46.4646 33.0483 46.2578 32.8545 46.2578 32.8416C46.2578 32.8287 46.1157 32.6994 46.2061 32.3635C46.232 32.1051 46.1286 31.95 45.896 31.9759C45.741 32.0792 45.5859 32.1309 45.5084 31.9371C45.4696 31.8079 45.4567 31.7304 45.573 31.6528ZM63.2233 32.3506C63.3267 32.4798 63.4042 32.609 63.2104 32.8416L62.7323 33.2551C62.6548 33.3843 62.6031 33.6168 62.8615 33.6815C63.3267 33.8107 64.4121 33.1 64.4121 33.0871C64.593 32.9579 64.5413 32.6994 64.5155 32.6994C64.4121 32.5832 64.1795 32.6607 64.0245 32.6348C63.9469 32.6348 63.7014 32.609 63.8177 32.3764C63.9045 32.2622 63.9742 32.136 64.0245 32.0017C64.0891 31.8466 64.0245 31.7433 63.766 31.6528C63.4947 31.6011 63.3784 31.627 63.0812 31.6528C62.9262 31.6787 62.8745 31.7562 62.8357 31.95C62.8486 32.2472 63.0295 32.2343 63.2233 32.3376V32.3506Z" fill="white"/>
<path fill-rule="evenodd" clip-rule="evenodd" d="M45.6635 25.0114C45.5989 25.1406 45.3663 25.1406 45.1466 25.0114C44.927 24.8822 44.7978 24.6754 44.8753 24.5591C44.9528 24.4428 45.1725 24.4428 45.3921 24.5591C45.6118 24.6754 45.7281 24.8951 45.6635 25.0114ZM34.1636 18.0856C34.0344 18.1244 33.8535 18.0081 33.776 17.8272C33.6985 17.6463 33.7372 17.4912 33.8664 17.4525C33.9956 17.4137 34.1636 17.5429 34.2541 17.7109C34.3445 17.8789 34.2928 18.0598 34.1507 18.0985L34.1636 18.0856Z" fill="#259F00"/>
<path fill-rule="evenodd" clip-rule="evenodd" d="M56.9178 48.9543C58.1324 49.006 59.2694 48.9543 60.4711 49.019C60.6908 49.2128 60.5357 49.665 60.3936 49.6392L59.3857 49.6004C59.3728 49.2128 58.3908 49.2774 58.4166 49.6133C57.8869 49.6779 57.4088 49.6004 56.8661 49.5746C56.711 49.3807 56.7369 49.0319 56.9178 48.9543Z" fill="#209000"/>
</g>
</svg>
